# Tiled2Unity generated file. Do not modify by hand.
# Wavefront file for 'Desert_mesh_0019.obj'

# Vertices (Count = 208)
v -142 -102 0
v -143 -102 0
v -143 -101 0
v -142 -101 0
v -143 -102 0
v -144 -102 0
v -144 -101 0
v -143 -101 0
v -144 -102 0
v -145 -102 0
v -145 -101 0
v -144 -101 0
v -145 -102 0
v -146 -102 0
v -146 -101 0
v -145 -101 0
v -146 -102 0
v -147 -102 0
v -147 -101 0
v -146 -101 0
v -147 -102 0
v -148 -102 0
v -148 -101 0
v -147 -101 0
v -148 -102 0
v -149 -102 0
v -149 -101 0
v -148 -101 0
v -149 -102 0
v -150 -102 0
v -150 -101 0
v -149 -101 0
v -142 -103 0
v -143 -103 0
v -143 -102 0
v -142 -102 0
v -143 -103 0
v -144 -103 0
v -144 -102 0
v -143 -102 0
v -144 -103 0
v -145 -103 0
v -145 -102 0
v -144 -102 0
v -142 -104 0
v -143 -104 0
v -143 -103 0
v -142 -103 0
v -143 -104 0
v -144 -104 0
v -144 -103 0
v -143 -103 0
v -144 -104 0
v -145 -104 0
v -145 -103 0
v -144 -103 0
v -142 -105 0
v -143 -105 0
v -143 -104 0
v -142 -104 0
v -142 -106 0
v -143 -106 0
v -143 -105 0
v -142 -105 0
v -142 -107 0
v -143 -107 0
v -143 -106 0
v -142 -106 0
v -142 -108 0
v -143 -108 0
v -143 -107 0
v -142 -107 0
v -142 -109 0
v -143 -109 0
v -143 -108 0
v -142 -108 0
v -142 -110 0
v -143 -110 0
v -143 -109 0
v -142 -109 0
v -142 -111 0
v -143 -111 0
v -143 -110 0
v -142 -110 0
v -142 -112 0
v -143 -112 0
v -143 -111 0
v -142 -111 0
v -142 -113 0
v -143 -113 0
v -143 -112 0
v -142 -112 0
v -143 -113 0
v -144 -113 0
v -144 -112 0
v -143 -112 0
v -144 -113 0
v -145 -113 0
v -145 -112 0
v -144 -112 0
v -142 -114 0
v -143 -114 0
v -143 -113 0
v -142 -113 0
v -143 -114 0
v -144 -114 0
v -144 -113 0
v -143 -113 0
v -144 -114 0
v -145 -114 0
v -145 -113 0
v -144 -113 0
v -142 -115 0
v -143 -115 0
v -143 -114 0
v -142 -114 0
v -143 -115 0
v -144 -115 0
v -144 -114 0
v -143 -114 0
v -144 -115 0
v -145 -115 0
v -145 -114 0
v -144 -114 0
v -145 -115 0
v -146 -115 0
v -146 -114 0
v -145 -114 0
v -146 -115 0
v -147 -115 0
v -147 -114 0
v -146 -114 0
v -147 -115 0
v -148 -115 0
v -148 -114 0
v -147 -114 0
v -148 -115 0
v -149 -115 0
v -149 -114 0
v -148 -114 0
v -149 -115 0
v -150 -115 0
v -150 -114 0
v -149 -114 0
v -142 -116 0
v -143 -116 0
v -143 -115 0
v -142 -115 0
v -143 -116 0
v -144 -116 0
v -144 -115 0
v -143 -115 0
v -144 -116 0
v -145 -116 0
v -145 -115 0
v -144 -115 0
v -145 -116 0
v -146 -116 0
v -146 -115 0
v -145 -115 0
v -146 -116 0
v -147 -116 0
v -147 -115 0
v -146 -115 0
v -147 -116 0
v -148 -116 0
v -148 -115 0
v -147 -115 0
v -148 -116 0
v -149 -116 0
v -149 -115 0
v -148 -115 0
v -149 -116 0
v -150 -116 0
v -150 -115 0
v -149 -115 0
v -143 -117 0
v -144 -117 0
v -144 -116 0
v -143 -116 0
v -144 -117 0
v -145 -117 0
v -145 -116 0
v -144 -116 0
v -145 -117 0
v -146 -117 0
v -146 -116 0
v -145 -116 0
v -146 -117 0
v -147 -117 0
v -147 -116 0
v -146 -116 0
v -147 -117 0
v -148 -117 0
v -148 -116 0
v -147 -116 0
v -148 -117 0
v -149 -117 0
v -149 -116 0
v -148 -116 0
v -149 -117 0
v -150 -117 0
v -150 -116 0
v -149 -116 0
v -139 -119 0
v -140 -119 0
v -140 -118 0
v -139 -118 0

# Texture cooridinates (Count = 57)
vt 0 0.4166667
vt 0.07692308 0.4166667
vt 0.07692308 0.4583333
vt 0 0.4583333
vt 0.1538462 0.4166667
vt 0.1538462 0.4583333
vt 0.2307692 0.4166667
vt 0.2307692 0.4583333
vt 0.3076923 0.4166667
vt 0.3076923 0.4583333
vt 0 0.375
vt 0.07692308 0.375
vt 0.1538462 0.375
vt 0.2307692 0.375
vt 0 0.3333333
vt 0.07692308 0.3333333
vt 0.1538462 0.3333333
vt 0.2307692 0.3333333
vt 0 0.2916667
vt 0.07692308 0.2916667
vt 0 0.25
vt 0.07692308 0.25
vt 0.1538462 0.25
vt 0.1538462 0.2916667
vt 0.2307692 0.25
vt 0.2307692 0.2916667
vt 0 0.2083333
vt 0.07692308 0.2083333
vt 0.1538462 0.2083333
vt 0.2307692 0.2083333
vt 0 0.1666667
vt 0.07692308 0.1666667
vt 0.1538462 0.1666667
vt 0.2307692 0.1666667
vt 0.3076923 0.1666667
vt 0.3076923 0.2083333
vt 0 0.125
vt 0.07692308 0.125
vt 0.1538462 0.125
vt 0.2307692 0.125
vt 0.3076923 0.125
vt 0.7692308 0.1666667
vt 0.8461539 0.1666667
vt 0.8461539 0.2083333
vt 0.7692308 0.2083333
vt 0.9230769 0.1666667
vt 0.9230769 0.2083333
vt 0.07692308 0.08333331
vt 0.1538462 0.08333331
vt 0.2307692 0.08333331
vt 0.3076923 0.08333331
vt 0.7692308 0.125
vt 0.8461539 0.125
vt 0.9230769 0.125
vt 0.3076923 0.375
vt 0.3846154 0.375
vt 0.3846154 0.4166667

# Normal
vn 0 0 -1

# Mesh description
g Desert_mesh_0019

# Faces
f 1/1/1 2/2/1 3/3/1 4/4/1
f 5/2/1 6/5/1 7/6/1 8/3/1
f 9/5/1 10/7/1 11/8/1 12/6/1
f 13/7/1 14/9/1 15/10/1 16/8/1
f 17/7/1 18/9/1 19/10/1 20/8/1
f 21/7/1 22/9/1 23/10/1 24/8/1
f 25/7/1 26/9/1 27/10/1 28/8/1
f 29/7/1 30/9/1 31/10/1 32/8/1
f 33/11/1 34/12/1 35/2/1 36/1/1
f 37/12/1 38/13/1 39/5/1 40/2/1
f 41/13/1 42/14/1 43/7/1 44/5/1
f 45/15/1 46/16/1 47/12/1 48/11/1
f 49/16/1 50/17/1 51/13/1 52/12/1
f 53/17/1 54/18/1 55/14/1 56/13/1
f 57/19/1 58/20/1 59/16/1 60/15/1
f 61/19/1 62/20/1 63/16/1 64/15/1
f 65/19/1 66/20/1 67/16/1 68/15/1
f 69/19/1 70/20/1 71/16/1 72/15/1
f 73/19/1 74/20/1 75/16/1 76/15/1
f 77/19/1 78/20/1 79/16/1 80/15/1
f 81/19/1 82/20/1 83/16/1 84/15/1
f 85/19/1 86/20/1 87/16/1 88/15/1
f 89/21/1 90/22/1 91/20/1 92/19/1
f 93/22/1 94/23/1 95/24/1 96/20/1
f 97/23/1 98/25/1 99/26/1 100/24/1
f 101/27/1 102/28/1 103/22/1 104/21/1
f 105/28/1 106/29/1 107/23/1 108/22/1
f 109/29/1 110/30/1 111/25/1 112/23/1
f 113/31/1 114/32/1 115/28/1 116/27/1
f 117/32/1 118/33/1 119/29/1 120/28/1
f 121/33/1 122/34/1 123/30/1 124/29/1
f 125/34/1 126/35/1 127/36/1 128/30/1
f 129/34/1 130/35/1 131/36/1 132/30/1
f 133/34/1 134/35/1 135/36/1 136/30/1
f 137/34/1 138/35/1 139/36/1 140/30/1
f 141/34/1 142/35/1 143/36/1 144/30/1
f 145/37/1 146/38/1 147/32/1 148/31/1
f 149/38/1 150/39/1 151/33/1 152/32/1
f 153/39/1 154/40/1 155/34/1 156/33/1
f 157/40/1 158/41/1 159/35/1 160/34/1
f 161/40/1 162/41/1 163/35/1 164/34/1
f 165/42/1 166/43/1 167/44/1 168/45/1
f 169/43/1 170/46/1 171/47/1 172/44/1
f 173/40/1 174/41/1 175/35/1 176/34/1
f 177/48/1 178/49/1 179/39/1 180/38/1
f 181/49/1 182/50/1 183/40/1 184/39/1
f 185/50/1 186/51/1 187/41/1 188/40/1
f 189/50/1 190/51/1 191/41/1 192/40/1
f 193/52/1 194/53/1 195/43/1 196/42/1
f 197/53/1 198/54/1 199/46/1 200/43/1
f 201/50/1 202/51/1 203/41/1 204/40/1
f 205/55/1 206/56/1 207/57/1 208/9/1

