# Tiled2Unity generated file. Do not modify by hand.
# Wavefront file for 'Desert_mesh_0005.obj'

# Vertices (Count = 56)
v -142 -136 0
v -143 -136 0
v -143 -135 0
v -142 -135 0
v -143 -136 0
v -144 -136 0
v -144 -135 0
v -143 -135 0
v -144 -136 0
v -145 -136 0
v -145 -135 0
v -144 -135 0
v -145 -136 0
v -146 -136 0
v -146 -135 0
v -145 -135 0
v -146 -136 0
v -147 -136 0
v -147 -135 0
v -146 -135 0
v -142 -137 0
v -143 -137 0
v -143 -136 0
v -142 -136 0
v -143 -137 0
v -144 -137 0
v -144 -136 0
v -143 -136 0
v -144 -137 0
v -145 -137 0
v -145 -136 0
v -144 -136 0
v -145 -137 0
v -146 -137 0
v -146 -136 0
v -145 -136 0
v -146 -137 0
v -147 -137 0
v -147 -136 0
v -146 -136 0
v -142 -138 0
v -143 -138 0
v -143 -137 0
v -142 -137 0
v -143 -138 0
v -144 -138 0
v -144 -137 0
v -143 -137 0
v -144 -138 0
v -145 -138 0
v -145 -137 0
v -144 -137 0
v -145 -138 0
v -146 -138 0
v -146 -137 0
v -145 -137 0

# Texture cooridinates (Count = 27)
vt 0.6923077 0.7083334
vt 0.7692308 0.7083334
vt 0.7692308 0.75
vt 0.6923077 0.75
vt 0.8461539 0.7083334
vt 0.8461539 0.75
vt 0.9230769 0.7083334
vt 0.9230769 0.75
vt 0.3846154 0.5833334
vt 0.4615385 0.5833334
vt 0.4615385 0.625
vt 0.3846154 0.625
vt 0.5384616 0.5833334
vt 0.5384616 0.625
vt 0.6923077 0.6666666
vt 0.7692308 0.6666666
vt 0.8461539 0.6666666
vt 0.9230769 0.6666666
vt 0.3846154 0.5416666
vt 0.4615385 0.5416666
vt 0.5384616 0.5416666
vt 0.6923077 0.625
vt 0.7692308 0.625
vt 0.8461539 0.625
vt 0.9230769 0.625
vt 0.3846154 0.5
vt 0.4615385 0.5

# Normal
vn 0 0 -1

# Mesh description
g Desert_mesh_0005

# Faces
f 1/1/1 2/2/1 3/3/1 4/4/1
f 5/2/1 6/5/1 7/6/1 8/3/1
f 9/5/1 10/7/1 11/8/1 12/6/1
f 13/9/1 14/10/1 15/11/1 16/12/1
f 17/10/1 18/13/1 19/14/1 20/11/1
f 21/15/1 22/16/1 23/2/1 24/1/1
f 25/16/1 26/17/1 27/5/1 28/2/1
f 29/17/1 30/18/1 31/7/1 32/5/1
f 33/19/1 34/20/1 35/10/1 36/9/1
f 37/20/1 38/21/1 39/13/1 40/10/1
f 41/22/1 42/23/1 43/16/1 44/15/1
f 45/23/1 46/24/1 47/17/1 48/16/1
f 49/24/1 50/25/1 51/18/1 52/17/1
f 53/26/1 54/27/1 55/20/1 56/19/1

