# Tiled2Unity generated file. Do not modify by hand.
# Wavefront file for 'Desert_mesh_0016.obj'

# Vertices (Count = 64)
v -44 -17 0
v -45 -17 0
v -45 -16 0
v -44 -16 0
v -45 -17 0
v -46 -17 0
v -46 -16 0
v -45 -16 0
v -104 -17 0
v -105 -17 0
v -105 -16 0
v -104 -16 0
v -105 -17 0
v -106 -17 0
v -106 -16 0
v -105 -16 0
v -44 -18 0
v -45 -18 0
v -45 -17 0
v -44 -17 0
v -45 -18 0
v -46 -18 0
v -46 -17 0
v -45 -17 0
v -104 -18 0
v -105 -18 0
v -105 -17 0
v -104 -17 0
v -105 -18 0
v -106 -18 0
v -106 -17 0
v -105 -17 0
v -86 -48 0
v -87 -48 0
v -87 -47 0
v -86 -47 0
v -87 -48 0
v -88 -48 0
v -88 -47 0
v -87 -47 0
v -86 -49 0
v -87 -49 0
v -87 -48 0
v -86 -48 0
v -87 -49 0
v -88 -49 0
v -88 -48 0
v -87 -48 0
v -82 -74 0
v -83 -74 0
v -83 -73 0
v -82 -73 0
v -83 -74 0
v -84 -74 0
v -84 -73 0
v -83 -73 0
v -82 -75 0
v -83 -75 0
v -83 -74 0
v -82 -74 0
v -83 -75 0
v -84 -75 0
v -84 -74 0
v -83 -74 0

# Texture cooridinates (Count = 9)
vt 0 0.5
vt 0.25 0.5
vt 0.25 1
vt 0 1
vt 0.5 0.5
vt 0.5 1
vt 0 0
vt 0.25 0
vt 0.5 0

# Normal
vn 0 0 -1

# Mesh description
g Desert_mesh_0016

# Faces
f 1/1/1 2/2/1 3/3/1 4/4/1
f 5/2/1 6/5/1 7/6/1 8/3/1
f 9/1/1 10/2/1 11/3/1 12/4/1
f 13/2/1 14/5/1 15/6/1 16/3/1
f 17/7/1 18/8/1 19/2/1 20/1/1
f 21/8/1 22/9/1 23/5/1 24/2/1
f 25/7/1 26/8/1 27/2/1 28/1/1
f 29/8/1 30/9/1 31/5/1 32/2/1
f 33/1/1 34/2/1 35/3/1 36/4/1
f 37/2/1 38/5/1 39/6/1 40/3/1
f 41/7/1 42/8/1 43/2/1 44/1/1
f 45/8/1 46/9/1 47/5/1 48/2/1
f 49/1/1 50/2/1 51/3/1 52/4/1
f 53/2/1 54/5/1 55/6/1 56/3/1
f 57/7/1 58/8/1 59/2/1 60/1/1
f 61/8/1 62/9/1 63/5/1 64/2/1

